<svg width="49" height="67" viewBox="0 0 49 67" fill="none" xmlns="http://www.w3.org/2000/svg">
<path d="M42.9714 28.4798C42.258 28.4798 41.5756 28.615 40.9465 28.859C40.2507 26.5085 38.0859 24.7893 35.5288 24.7893C34.7933 24.7893 34.0909 24.933 33.4458 25.1915C32.6939 22.9356 30.5762 21.305 28.0861 21.305C27.4607 21.305 26.8594 21.4093 26.2966 21.599V15.5718C26.2966 12.4326 23.7606 9.87854 20.6434 9.87854C17.5262 9.87854 14.9903 12.4325 14.9903 15.5718V40.1973L12.7823 36.8967L12.7311 36.8325C10.5673 34.1238 6.76069 33.5219 3.87673 35.4325C2.36875 36.4316 1.34707 37.9643 0.999987 39.7481C0.655349 41.5193 1.01931 43.3141 2.02488 44.8062L11.8651 60.4271L11.9038 60.4863C14.4415 64.2072 18.6323 66.4286 23.1145 66.4286H34.1582C42.1351 66.4286 48.6246 59.8929 48.6246 51.8596V34.1732C48.6246 31.0338 46.0886 28.4798 42.9714 28.4798ZM44.761 51.8596C44.761 57.7476 40.0046 62.5376 34.1582 62.5376H23.1145C19.9168 62.5376 16.9265 60.9584 15.108 58.3115L5.27022 42.6945L5.23146 42.6352C4.80208 42.0057 4.64598 41.2461 4.79177 40.4966C4.93769 39.7472 5.36694 39.1031 6.00058 38.6833C7.19239 37.8936 8.75909 38.1255 9.67555 39.216L18.8543 52.938V15.5719C18.8543 14.5783 19.657 13.7697 20.6438 13.7697C21.6306 13.7697 22.4333 14.5782 22.4333 15.5719V35.0136H26.297V26.9983C26.297 26.0046 27.0997 25.1961 28.0865 25.1961C29.0733 25.1961 29.876 26.0045 29.876 26.9983V35.0136H33.7396V30.4824C33.7396 29.4888 34.5424 28.6802 35.5292 28.6802C36.5159 28.6802 37.3187 29.4887 37.3187 30.4824V35.0136H41.1823V34.3267V34.1731C41.1823 33.1793 41.9851 32.3708 42.9718 32.3708C43.9586 32.3708 44.7613 33.1792 44.7613 34.1731V51.8596H44.761Z" fill="#F76A2A"/>
<path d="M22.4674 0.0214233H18.6038V5.40404H22.4674V0.0214233Z" fill="#F76A2A"/>
<path d="M28.5459 2.31913L24.9457 6.29742L27.8013 8.91844L31.4015 4.94014L28.5459 2.31913Z" fill="#F76A2A"/>
<path d="M34.3563 10.7579L29.0345 11.2563L29.3923 15.1306L34.7141 14.6322L34.3563 10.7579Z" fill="#F76A2A"/>
<path d="M12.4068 2.31722L9.55115 4.93823L13.1513 8.91653L16.007 6.29551L12.4068 2.31722Z" fill="#F76A2A"/>
<path d="M6.59642 10.7595L6.23865 14.6338L11.5604 15.1322L11.9182 11.2579L6.59642 10.7595Z" fill="#F76A2A"/>
</svg>
